<?xml version="1.0" standalone="no"?>
<!DOCTYPE svg PUBLIC "-//W3C//DTD SVG 20010904//EN"
 "http://www.w3.org/TR/2001/REC-SVG-20010904/DTD/svg10.dtd">
<svg version="1.0" xmlns="http://www.w3.org/2000/svg"
 width="640.000000pt" height="640.000000pt" viewBox="0 0 640.000000 640.000000"
 preserveAspectRatio="xMidYMid meet">
<metadata>
Created by potrace 1.11, written by Peter Selinger 2001-2013
</metadata>
<g transform="translate(0.000000,640.000000) scale(0.100000,-0.100000)"
fill="#000000" stroke="none">
<path d="M0 3200 l0 -3200 3200 0 3200 0 0 1373 0 1374 -39 42 c-74 80 -71 49
-71 855 0 735 3 794 39 838 5 7 24 29 41 49 l30 37 0 916 0 916 -3200 0 -3200
0 0 -3200z m3172 3160 c720 -5 1401 -277 1961 -785 252 -227 491 -540 644
-840 136 -266 233 -552 283 -825 15 -89 16 -142 8 -601 -4 -283 -13 -533 -19
-569 -6 -36 -31 -132 -54 -215 -100 -350 -259 -673 -478 -967 -109 -147 -137
-179 -281 -324 -459 -461 -1022 -753 -1651 -854 -126 -21 -144 -21 -570 -11
-437 10 -441 10 -568 40 -580 136 -1068 404 -1478 811 -400 397 -690 921 -813
1475 -95 424 -95 900 -1 1319 99 438 298 853 583 1216 96 122 359 385 482 481
476 375 1005 587 1600 644 74 7 141 11 147 9 7 -2 99 -4 205 -4z m1456 -6024
c50 -27 92 -53 92 -58 0 -4 -12 -15 -26 -25 -22 -14 -29 -14 -46 -4 -19 11
-26 8 -72 -38 -28 -28 -57 -51 -64 -51 -8 0 -12 22 -12 73 0 98 7 119 31 106
26 -13 24 -1 -3 29 -31 33 -12 27 100 -32z m1377 -28 l-7 -63 34 33 c43 40 62
42 23 2 -29 -30 -29 -30 -12 -65 19 -40 20 -45 9 -45 -4 0 -13 13 -20 30 -8
17 -18 30 -23 30 -6 0 -15 -13 -20 -30 -11 -31 -34 -43 -25 -12 2 9 10 51 16
92 7 41 14 78 17 83 12 20 14 1 8 -55z m-1094 42 c19 -11 26 -54 11 -77 -11
-17 -62 -34 -83 -28 -14 5 -20 0 -25 -22 -9 -45 -13 -53 -22 -53 -8 0 11 142
23 178 5 15 69 16 96 2z m769 -78 l16 -67 42 72 c66 112 76 109 56 -16 -7 -46
-16 -86 -19 -89 -14 -14 -16 12 -5 63 6 31 10 59 7 62 -3 2 -22 -25 -42 -61
-20 -36 -41 -66 -45 -66 -5 0 -14 26 -20 58 -16 82 -22 93 -30 57 -4 -16 -8
-43 -9 -60 -1 -33 -16 -63 -26 -53 -6 6 22 164 32 181 11 18 28 -16 43 -81z
m-400 53 c0 -8 6 -15 13 -15 7 -1 5 -6 -5 -14 -24 -18 -36 -104 -17 -118 11
-7 9 -8 -6 -6 -18 3 -20 10 -17 61 1 33 -2 57 -8 57 -5 0 -10 5 -10 10 0 6 7
10 15 10 8 0 15 7 15 15 0 8 5 15 10 15 6 0 10 -7 10 -15z m-222 -48 c12 -24
11 -33 -5 -65 -16 -32 -23 -37 -53 -37 -44 0 -66 36 -50 82 22 59 84 71 108
20z m126 27 c9 -3 16 -13 16 -22 0 -12 -3 -13 -12 -4 -7 7 -22 12 -35 12 -30
0 -30 -28 0 -39 13 -5 29 -16 36 -25 12 -14 11 -19 -4 -36 -26 -29 -85 -24
-85 7 0 12 3 12 22 -1 15 -11 26 -12 40 -5 27 14 22 27 -17 43 -67 28 -29 96
39 70z m236 -13 c5 -11 10 -29 10 -40 0 -18 -6 -21 -45 -21 -33 0 -45 -4 -45
-15 0 -20 32 -36 51 -24 22 14 33 11 19 -6 -30 -36 -90 -6 -90 44 0 62 75 108
100 62z m110 9 c0 -5 -10 -10 -22 -12 -20 -3 -24 -12 -32 -60 -6 -35 -14 -58
-22 -58 -9 0 -10 9 -4 33 4 17 11 48 14 68 6 32 10 36 36 37 17 0 30 -3 30 -8z
m399 -8 c8 -16 7 -39 -4 -98 -8 -38 -105 -27 -105 12 0 21 30 44 59 44 33 0
42 7 34 26 -6 17 -45 18 -61 2 -9 -9 -12 -9 -12 0 0 30 74 43 89 14z m269 6
c7 -7 12 -25 12 -40 0 -27 -2 -28 -45 -28 -33 0 -45 -4 -45 -15 0 -20 32 -36
51 -24 22 14 33 11 19 -6 -17 -20 -55 -19 -75 2 -21 20 -15 76 11 104 19 22
54 25 72 7z m112 1 c0 -5 -7 -9 -15 -9 -18 0 -31 -24 -40 -77 -4 -24 -11 -43
-16 -43 -12 0 -11 15 2 82 10 51 13 55 40 56 16 0 29 -4 29 -9z"/>
<path d="M2941 5901 c-46 -4 -76 -11 -79 -18 -3 -10 16 -13 75 -12 85 1 124 9
124 24 0 12 -25 13 -120 6z"/>
<path d="M2975 5785 c-61 -36 -67 -44 -61 -79 3 -17 12 -103 21 -191 8 -88 19
-189 25 -225 7 -48 6 -68 -3 -77 -15 -15 -148 -27 -165 -15 -11 7 -11 18 -3
46 27 101 -49 267 -123 266 -36 -1 -99 -36 -143 -80 -46 -47 -63 -96 -63 -181
l0 -52 -102 7 c-57 4 -126 9 -155 13 l-51 6 -26 -42 c-47 -74 -34 -100 92
-171 34 -19 60 -39 58 -45 -9 -31 -286 -64 -386 -47 -115 21 -145 58 -144 174
0 54 -3 79 -12 82 -18 7 -29 -12 -42 -72 -27 -123 1 -227 75 -276 84 -56 241
-57 394 -3 127 45 189 93 189 148 0 43 -10 59 -51 80 -22 11 -39 21 -39 23 0
2 55 3 123 3 72 -1 147 4 183 12 55 12 70 11 130 -4 86 -22 206 -24 262 -6 38
13 48 13 90 -2 52 -19 139 -22 189 -8 25 7 44 5 83 -10 79 -30 185 -22 231 18
14 12 28 10 100 -10 103 -30 160 -40 175 -30 18 13 54 120 54 161 0 20 -9 84
-20 142 -11 58 -20 106 -20 107 0 2 -7 3 -16 3 -26 0 -84 -68 -84 -98 0 -15
16 -60 35 -101 19 -40 35 -77 35 -83 0 -14 -76 -5 -147 17 -62 18 -65 29 -32
114 21 56 17 71 -21 71 -27 0 -37 -14 -78 -101 -42 -92 -51 -99 -123 -99 -55
0 -61 15 -34 82 16 40 20 59 12 67 -20 20 -36 11 -76 -43 -23 -30 -51 -62 -63
-70 -26 -19 -123 -21 -182 -5 l-39 11 7 299 c8 331 12 315 -59 274z m-299
-423 c19 -12 54 -76 54 -98 0 -26 -39 -53 -84 -61 -36 -6 -80 12 -110 45 -17
19 -17 22 -2 44 39 55 111 91 142 70z"/>
<path d="M2591 5699 l-34 -40 35 -36 c42 -41 54 -40 93 12 l28 36 -33 34 c-19
19 -39 35 -44 34 -6 0 -26 -19 -45 -40z"/>
<path d="M4766 5514 l-28 -16 6 -81 c7 -81 22 -192 31 -233 6 -29 46 -44 115
-44 86 0 158 18 171 42 6 12 9 47 7 80 -6 75 -31 112 -81 116 -32 3 -39 -1
-57 -30 -24 -40 -26 -95 -4 -119 15 -17 14 -19 -10 -25 -40 -10 -113 4 -121
24 -3 9 -3 81 1 159 4 79 5 143 3 143 -2 -1 -17 -8 -33 -16z m229 -200 c18 -7
45 -55 45 -80 0 -13 -6 -15 -32 -10 -65 13 -97 53 -66 84 13 13 28 15 53 6z"/>
<path d="M3433 5505 c-3 -9 -3 -18 0 -21 10 -11 200 11 205 24 3 9 -21 12 -97
12 -82 0 -103 -3 -108 -15z"/>
<path d="M5007 5482 c-13 -14 -14 -21 -5 -30 7 -7 17 -12 24 -12 19 0 26 32
11 47 -11 11 -16 11 -30 -5z"/>
<path d="M4920 5474 c-11 -12 -10 -18 3 -32 16 -15 18 -15 34 0 13 14 14 20 3
32 -7 9 -16 16 -20 16 -4 0 -13 -7 -20 -16z"/>
<path d="M4363 5355 c-46 -20 -85 -77 -91 -134 -4 -42 -1 -50 19 -65 13 -9 42
-21 64 -27 l40 -11 -23 -19 c-48 -38 -150 -51 -190 -23 -18 12 -22 25 -22 65
0 74 -24 60 -28 -16 -4 -71 11 -103 56 -122 57 -24 176 15 221 73 39 49 19
114 -34 114 -35 0 -75 18 -75 33 0 26 58 70 94 71 44 2 49 8 35 39 -15 33 -28
38 -66 22z"/>
<path d="M4580 5331 c-15 -30 -13 -43 20 -104 25 -46 28 -60 19 -79 -18 -40
-59 -63 -114 -63 -27 0 -52 -4 -54 -10 -8 -18 61 -57 89 -50 98 23 137 129 96
263 -20 64 -37 77 -56 43z"/>
<path d="M3206 4829 c-25 -35 -46 -66 -46 -70 0 -11 70 -69 83 -69 36 0 113
96 102 127 -6 19 -52 59 -78 69 -11 4 -30 -14 -61 -57z"/>
<path d="M4848 4824 c-33 -17 -33 -10 -9 -192 12 -93 24 -149 33 -159 22 -21
86 -27 133 -11 57 19 77 63 64 138 -15 84 -16 86 -39 65 -24 -22 -25 -46 -4
-86 26 -51 14 -60 -68 -57 l-73 3 -2 153 c-1 85 -3 155 -5 157 -2 2 -15 -3
-30 -11z"/>
<path d="M5002 4788 c-18 -18 -15 -36 9 -43 25 -8 42 6 37 31 -4 23 -29 29
-46 12z"/>
<path d="M4537 4643 c-24 -21 -59 -55 -77 -75 -36 -42 -55 -41 -46 3 8 40 -12
37 -47 -6 -23 -29 -34 -35 -68 -35 -43 0 -49 7 -69 87 -12 48 -25 60 -45 43
-22 -18 -17 -70 10 -115 33 -53 31 -75 -6 -111 -26 -25 -39 -29 -87 -30 -31 0
-57 -5 -59 -10 -5 -16 50 -48 84 -48 42 0 83 31 107 81 18 36 23 40 60 42 95
4 115 3 184 -9 64 -11 81 -10 137 5 68 18 109 51 120 98 6 23 1 34 -38 72 -59
59 -96 61 -160 8z m134 -54 c16 -11 29 -25 29 -30 0 -29 -177 -63 -216 -41
-17 9 -15 13 21 47 22 20 49 41 60 46 28 12 71 3 106 -22z"/>
<path d="M3294 4569 c-12 -21 -34 -114 -34 -150 0 -32 4 -37 40 -53 47 -20 90
-85 90 -135 0 -19 -21 -72 -51 -132 -85 -163 -92 -241 -26 -293 95 -76 107
-89 107 -112 0 -41 -105 -147 -199 -201 -48 -28 -66 -33 -124 -33 -65 0 -69 2
-110 39 -93 86 -99 190 -23 411 26 74 45 142 44 150 -4 17 -87 -168 -125 -279
-21 -60 -28 -100 -31 -191 -5 -132 5 -179 48 -238 39 -54 67 -71 129 -79 75
-9 161 37 263 139 114 114 178 258 178 399 0 68 -20 109 -74 154 -25 20 -46
46 -46 56 0 10 16 47 35 82 92 168 92 342 -1 429 -36 33 -81 52 -90 37z"/>
<path d="M2245 4398 c-66 -202 -65 -198 -65 -396 0 -259 -21 -330 -111 -378
-39 -20 -121 -36 -131 -26 -5 5 8 37 30 75 22 38 44 92 50 125 14 74 24 512
11 492 -5 -8 -23 -57 -39 -108 -23 -71 -30 -111 -31 -175 -1 -254 -36 -407
-94 -407 -58 0 -35 -54 47 -110 44 -30 50 -32 78 -20 34 14 147 130 185 189
13 22 29 42 34 45 5 4 28 -3 51 -15 38 -20 46 -21 98 -9 84 18 130 45 198 116
56 57 110 141 99 152 -2 3 -20 -9 -40 -27 -40 -35 -73 -46 -109 -37 -56 14
-74 72 -37 117 17 21 28 24 93 24 73 0 73 0 76 28 5 39 -14 57 -60 57 -33 0
-46 -7 -87 -48 -26 -26 -67 -80 -90 -120 -23 -40 -49 -76 -56 -78 -22 -9 -53
14 -72 54 -16 33 -18 64 -16 265 1 210 -1 248 -12 215z"/>
<path d="M1190 4301 c-39 -21 -78 -58 -118 -109 -37 -49 -17 -52 28 -4 22 23
51 44 65 48 37 9 117 -3 134 -21 13 -13 6 -23 -61 -85 -85 -78 -148 -168 -195
-275 -55 -125 -67 -181 -67 -305 -1 -100 2 -120 21 -156 20 -37 84 -103 101
-104 4 -1 26 -4 49 -9 61 -12 155 5 225 40 75 38 216 177 267 262 54 91 106
237 84 237 -4 0 -26 -32 -48 -71 -46 -83 -140 -180 -217 -227 -63 -38 -182
-66 -236 -56 -152 28 -213 149 -163 326 35 128 92 200 286 361 86 71 100 87
100 112 0 27 -4 31 -45 42 -71 18 -169 15 -210 -6z"/>
<path d="M3713 4233 c-28 -64 -27 -53 -48 -346 -13 -164 -14 -219 -4 -266 22
-116 73 -160 160 -142 103 22 180 87 259 216 24 39 54 82 67 96 13 14 25 39
26 55 2 31 -7 34 -144 50 -56 7 -57 6 -96 -34 -22 -23 -58 -75 -79 -117 -42
-81 -57 -90 -93 -51 -40 43 -42 92 -15 489 4 59 4 107 0 107 -4 0 -19 -26 -33
-57z m309 -427 c61 -26 64 -39 17 -81 -23 -20 -60 -45 -83 -56 -44 -20 -116
-26 -116 -9 0 6 13 37 30 70 44 88 80 106 152 76z"/>
<path d="M4465 4017 c-37 -57 -86 -189 -80 -215 12 -52 73 -100 110 -86 24 9
45 -3 38 -22 -3 -9 -70 -58 -149 -110 -79 -52 -146 -99 -149 -104 -11 -17 36
-11 138 19 127 37 127 37 204 191 59 121 57 252 -7 320 -35 38 -82 41 -105 7z"/>
<path d="M5022 3993 c-5 -10 -22 -65 -37 -123 -48 -183 -43 -177 -253 -320
-134 -92 -133 -108 6 -74 143 35 144 36 182 91 65 92 160 443 120 443 -5 0
-13 -8 -18 -17z"/>
<path d="M1336 3895 c-20 -30 -36 -63 -36 -72 0 -27 64 -67 94 -59 26 6 86 80
86 106 0 23 -62 80 -87 80 -13 0 -32 -18 -57 -55z"/>
<path d="M1759 3183 c-41 -32 -145 -112 -232 -177 -196 -146 -237 -199 -287
-366 -20 -64 -24 -108 -30 -305 -5 -173 -11 -239 -22 -266 -18 -40 -63 -79
-122 -103 -79 -33 -345 -47 -416 -23 -50 17 -72 65 -64 135 10 83 -9 61 -44
-51 -40 -129 -41 -172 -4 -216 40 -48 112 -63 251 -51 149 13 199 28 282 81
74 47 158 181 196 312 11 38 17 125 22 312 3 143 11 267 16 277 6 9 58 52 117
97 135 100 305 236 339 272 31 31 84 118 76 125 -2 3 -38 -21 -78 -53z"/>
<path d="M4805 3168 c-11 -6 -33 -23 -50 -37 -16 -15 -40 -34 -52 -42 -80 -53
-334 -252 -361 -283 -46 -53 -98 -161 -120 -252 -15 -61 -21 -129 -26 -296 -4
-154 -9 -227 -20 -251 -36 -87 -182 -137 -404 -137 -163 0 -208 34 -197 150 8
86 -6 71 -44 -51 -37 -115 -39 -169 -10 -211 34 -47 80 -62 192 -60 276 3 401
75 500 286 48 102 55 150 63 419 4 138 10 261 14 273 5 11 28 35 52 52 325
242 434 337 473 412 19 37 17 42 -10 28z"/>
<path d="M5067 2798 c-51 -69 -52 -77 -16 -114 18 -19 41 -34 50 -34 25 0 79
66 79 98 0 19 -10 35 -34 55 -19 15 -39 27 -45 27 -5 0 -21 -15 -34 -32z"/>
<path d="M5161 2620 c-23 -28 -49 -50 -57 -50 -7 0 -32 16 -53 35 l-39 36 -25
-23 c-31 -29 -67 -88 -67 -110 0 -20 55 -68 79 -68 9 0 35 18 56 40 21 22 44
40 50 40 6 0 26 -11 45 -25 46 -34 62 -32 104 15 55 61 45 110 -30 148 -19 10
-26 6 -63 -38z"/>
<path d="M1555 2513 c-10 -27 -22 -53 -27 -60 -22 -27 -45 -516 -29 -593 26
-126 129 -161 190 -64 34 52 67 165 57 191 -6 15 -12 10 -29 -27 -26 -52 -47
-59 -95 -30 -74 46 -80 136 -36 563 8 80 -5 89 -31 20z"/>
<path d="M5410 2365 l-20 -46 -47 6 c-44 6 -50 4 -76 -23 -16 -16 -45 -63 -66
-103 -21 -40 -49 -82 -63 -92 -23 -18 -31 -18 -76 -7 -87 20 -191 -22 -292
-121 -51 -49 -77 -83 -140 -184 -74 -119 -187 -235 -310 -316 -40 -27 -15 -34
32 -9 94 49 221 165 313 288 97 129 166 167 302 165 l92 -1 44 38 c31 27 57
67 92 137 26 54 53 101 59 105 6 4 32 8 57 8 59 0 72 17 130 167 17 44 -11 34
-31 -12z"/>
<path d="M2731 2324 c-29 -65 -47 -77 -76 -48 -14 15 -19 13 -55 -20 -22 -20
-44 -36 -48 -36 -5 0 -23 11 -42 25 -19 14 -42 25 -52 25 -9 0 -44 -24 -77
-54 -54 -48 -69 -55 -142 -72 -92 -21 -136 -50 -224 -149 -71 -80 -88 -114
-71 -139 49 -75 263 -101 621 -76 340 23 583 76 704 154 63 40 44 50 -70 37
-208 -23 -466 -33 -729 -29 -275 5 -333 12 -364 44 -27 26 -6 42 96 70 86 23
108 34 150 71 56 50 75 53 108 18 28 -30 49 -31 100 -5 22 11 46 20 55 20 51
0 126 78 146 153 16 62 -5 69 -30 11z"/>
<path d="M5137 1761 c-120 -66 -137 -106 -19 -47 70 35 102 59 102 77 0 13 -8
10 -83 -30z"/>
<path d="M1667 1585 c-15 -19 -32 -35 -38 -35 -6 0 -26 12 -45 26 l-35 27 -23
-22 c-13 -13 -35 -43 -48 -67 l-23 -45 37 -35 c21 -19 42 -34 48 -34 5 0 24
16 41 35 37 40 45 42 79 15 37 -29 54 -25 93 21 50 58 52 76 12 116 -42 42
-63 42 -98 -2z"/>
<path d="M1591 1379 c-13 -17 -24 -45 -25 -63 -1 -31 0 -31 52 -34 61 -4 82 8
82 46 0 29 -45 82 -70 82 -9 0 -27 -14 -39 -31z"/>
<path d="M4032 1327 c-15 -17 118 -22 141 -5 15 11 5 13 -57 15 -48 1 -78 -2
-84 -10z"/>
<path d="M2893 1282 c-20 -13 -32 -56 -21 -76 7 -12 6 -22 -3 -32 -19 -23 -5
-26 47 -11 51 15 75 47 36 47 -31 0 -52 11 -52 26 0 14 11 18 43 14 13 -1 18
4 15 17 -3 19 -44 29 -65 15z"/>
<path d="M3298 1283 c-27 -7 -33 -49 -20 -139 19 -126 14 -127 -90 -29 -49 47
-95 85 -102 85 -20 0 -39 -45 -32 -74 4 -18 16 -28 37 -33 34 -9 158 -102 159
-119 0 -17 -72 -85 -102 -96 -23 -8 -28 -16 -28 -45 l0 -36 104 5 c61 3 111
10 119 17 31 25 30 61 -3 113 -30 49 -30 50 -15 94 8 25 15 71 15 102 0 32 5
63 12 70 9 9 8 21 -1 52 -11 39 -17 43 -53 33z m4 -360 c26 -24 23 -30 -23
-38 -51 -9 -58 -1 -29 30 28 30 28 30 52 8z"/>
<path d="M4092 1253 c-7 -3 -17 -15 -21 -27 -9 -24 12 -406 23 -424 3 -6 13
-9 20 -6 10 4 15 50 20 187 4 100 12 187 16 193 6 6 5 25 -1 47 -10 36 -24 44
-57 30z"/>
<path d="M2297 1092 c-22 -24 -21 -35 1 -55 24 -22 29 -22 48 8 16 24 16 27
-1 45 -22 25 -28 25 -48 2z"/>
<path d="M2911 1064 c-26 -33 -26 -33 0 -88 33 -66 24 -76 -69 -76 -90 0 -105
9 -90 52 16 45 -5 59 -34 23 -62 -74 -63 -75 -131 -75 -71 0 -81 6 -92 58 -7
36 -12 38 -42 17 -36 -25 -37 -60 -4 -130 27 -59 28 -64 12 -79 -31 -28 -90
-46 -150 -46 -52 0 -62 3 -80 26 -15 20 -21 41 -21 80 0 63 -14 71 -29 17 -15
-53 -14 -86 5 -133 20 -50 56 -70 126 -70 91 1 179 58 194 128 3 15 7 32 9 38
2 6 36 13 79 16 53 4 82 10 96 23 18 16 21 16 55 -5 31 -19 46 -22 101 -17 78
6 110 25 123 75 12 44 -7 183 -25 189 -7 2 -21 -8 -33 -23z"/>
<path d="M3742 1074 c-27 -19 -28 -36 -2 -59 19 -17 21 -17 40 0 25 22 25 37
2 58 -16 15 -20 15 -40 1z"/>
<path d="M3896 948 c-36 -31 -37 -65 -5 -136 28 -64 23 -77 -46 -104 -59 -23
-147 -21 -172 5 -11 10 -18 39 -21 77 -5 67 -15 76 -31 29 -26 -74 -4 -155 51
-189 66 -42 206 -3 257 71 21 31 23 41 18 129 -3 52 -9 106 -14 119 l-9 23
-28 -24z"/>
<path d="M2617 732 c-22 -24 -21 -39 2 -51 14 -8 23 -6 37 10 17 19 17 20 -2
40 -20 19 -21 19 -37 1z"/>
<path d="M2706 732 c-15 -18 -15 -20 4 -37 20 -18 21 -18 42 3 18 17 19 23 8
36 -17 21 -33 20 -54 -2z"/>
<path d="M4826 309 c-7 -38 -1 -49 28 -49 34 0 58 23 54 51 -2 20 -9 25 -39
27 -34 3 -37 1 -43 -29z"/>
<path d="M4982 278 c-16 -16 -16 -85 1 -91 37 -12 71 38 59 86 -5 20 -42 23
-60 5z"/>
<path d="M5350 270 c-10 -18 -8 -20 25 -20 28 0 35 4 35 20 0 15 -7 20 -25 20
-14 0 -29 -8 -35 -20z"/>
<path d="M5856 224 c-19 -18 -13 -34 13 -34 20 0 41 19 41 37 0 18 -35 16 -54
-3z"/>
<path d="M6130 270 c-10 -18 -8 -20 25 -20 28 0 35 4 35 20 0 15 -7 20 -25 20
-14 0 -29 -8 -35 -20z"/>
<path d="M6385 4510 c5 -8 2 -17 -6 -24 -8 -6 -22 -36 -31 -66 -14 -48 -16
-144 -14 -757 0 -387 -3 -703 -7 -703 -4 0 -3 -9 3 -19 5 -11 10 -29 10 -40 0
-11 7 -27 16 -36 10 -10 14 -25 10 -43 -3 -15 -3 -21 0 -14 10 21 26 13 19
-10 -5 -18 -4 -20 4 -8 16 22 15 1716 -1 1726 -7 5 -8 3 -3 -6z"/>
</g>
</svg>
